<?xml version="1.0" standalone="no"?><svg xmlns="http://www.w3.org/2000/svg" viewBox="0 0 1440 320"><path fill="#ffff" fill-opacity="1" d="M0,64L18.5,69.3C36.9,75,74,85,111,117.3C147.7,149,185,203,222,218.7C258.5,235,295,213,332,170.7C369.2,128,406,64,443,53.3C480,43,517,85,554,112C590.8,139,628,149,665,149.3C701.5,149,738,139,775,122.7C812.3,107,849,85,886,112C923.1,139,960,213,997,250.7C1033.8,288,1071,288,1108,245.3C1144.6,203,1182,117,1218,74.7C1255.4,32,1292,32,1329,42.7C1366.2,53,1403,75,1422,85.3L1440,96L1440,320L1421.5,320C1403.1,320,1366,320,1329,320C1292.3,320,1255,320,1218,320C1181.5,320,1145,320,1108,320C1070.8,320,1034,320,997,320C960,320,923,320,886,320C849.2,320,812,320,775,320C738.5,320,702,320,665,320C627.7,320,591,320,554,320C516.9,320,480,320,443,320C406.2,320,369,320,332,320C295.4,320,258,320,222,320C184.6,320,148,320,111,320C73.8,320,37,320,18,320L0,320Z"></path></svg>